<svg width="31" height="30" viewBox="0 0 31 30" fill="none" xmlns="http://www.w3.org/2000/svg">
<path d="M14.3587 1.51246C14.718 0.406888 16.282 0.406888 16.6413 1.51246L19.3841 9.95401C19.5447 10.4484 20.0055 10.7832 20.5254 10.7832H29.4013C30.5638 10.7832 31.0471 12.2707 30.1067 12.954L22.9259 18.1712C22.5053 18.4767 22.3293 19.0184 22.4899 19.5128L25.2328 27.9544C25.592 29.0599 24.3266 29.9793 23.3861 29.296L16.2053 24.0788C15.7848 23.7733 15.2152 23.7733 14.7947 24.0788L7.61385 29.296C6.67339 29.9793 5.40802 29.0599 5.76724 27.9544L8.51007 19.5128C8.67071 19.0184 8.49472 18.4767 8.07414 18.1712L0.893333 12.954C-0.0471238 12.2707 0.436207 10.7832 1.59868 10.7832H10.4746C10.9945 10.7832 11.4553 10.4484 11.6159 9.95401L14.3587 1.51246Z" fill="#FFE454"/>
</svg>
